<svg width="31" height="31" viewBox="0 0 31 31" fill="none" xmlns="http://www.w3.org/2000/svg"><g clip-path="url(#a)" fill="#4E7CFF"><path d="M12.594.002C5.651.002.001 5.65.001 12.594c0 2.387.659 4.683 1.91 6.665l-1.842 4.6a.967.967 0 0 0 .9 1.328.976.976 0 0 0 .361-.07l4.598-1.84a12.445 12.445 0 0 0 6.666 1.91c6.944 0 12.593-5.65 12.593-12.593S19.537.002 12.594.002z"/><path d="M30.93 29.672l-1.672-4.18a11.499 11.499 0 0 0 1.741-6.117c0-3.507-1.567-6.647-4.03-8.78.092.654.155 1.319.155 1.999 0 8.013-6.517 14.53-14.53 14.53-.672 0-1.335-.056-1.991-.147 2.13 2.459 5.27 4.022 8.772 4.022a11.5 11.5 0 0 0 6.118-1.742l4.177 1.672a.976.976 0 0 0 1.046-.213.964.964 0 0 0 .213-1.044z"/></g><defs><clipPath id="a"><path fill="#fff" d="M0 0h31v31H0z"/></clipPath></defs></svg>