<svg width="24" height="24" viewBox="0 0 24 24" fill="none" xmlns="http://www.w3.org/2000/svg"><path fill-rule="evenodd" clip-rule="evenodd" d="M19 2.667a2.333 2.333 0 1 0 4.667 0 2.333 2.333 0 0 0-4.667 0zm2.333 11.666a2.333 2.333 0 1 1 0-4.666 2.333 2.333 0 0 1 0 4.666zm0 9.334a2.333 2.333 0 1 1 0-4.667 2.333 2.333 0 0 1 0 4.667zm-9.334 0A2.333 2.333 0 1 1 12 19a2.333 2.333 0 0 1 0 4.667zM9.666 12a2.333 2.333 0 1 0 4.667 0 2.333 2.333 0 0 0-4.667 0zM12 5a2.333 2.333 0 1 1 0-4.667A2.333 2.333 0 0 1 12 5zM.333 21.333a2.333 2.333 0 1 0 4.667 0 2.333 2.333 0 0 0-4.667 0zm2.333-7a2.333 2.333 0 1 1 0-4.666 2.333 2.333 0 0 1 0 4.666zM.333 2.667a2.333 2.333 0 1 0 4.667 0 2.333 2.333 0 0 0-4.667 0z" fill="#4974F7"/></svg>