<svg width="28" height="28" viewBox="0 0 28 28" fill="none" xmlns="http://www.w3.org/2000/svg"><path fill-rule="evenodd" clip-rule="evenodd" d="M14 27.75C6.406 27.75.25 21.594.25 14S6.406.25 14 .25 27.75 6.406 27.75 14 21.594 27.75 14 27.75zm9.25-7.344a11.21 11.21 0 0 0 2-6.406c0-6.213-5.037-11.25-11.25-11.25S2.75 7.787 2.75 14c0 2.38.739 4.588 2 6.406C6.157 18.548 9.463 17.75 14 17.75s7.842.798 9.25 2.656zm-1.794 2.019C21.09 21.109 18.462 20.25 14 20.25s-7.09.86-7.456 2.175A11.208 11.208 0 0 0 14 25.25c2.86 0 5.47-1.067 7.456-2.825zM14 6.5c-3.026 0-5 2.195-5 5 0 4.284 2.201 6.25 5 6.25 2.773 0 5-1.9 5-6 0-2.848-1.982-5.25-5-5.25zm-2.5 5c0 2.836 1.023 3.75 2.5 3.75 1.472 0 2.5-.877 2.5-3.5C16.5 10.188 15.52 9 14 9c-1.583 0-2.5 1.02-2.5 2.5z" fill="#4974F7"/></svg>