<svg width="21" height="14" viewBox="0 0 21 14" fill="none" xmlns="http://www.w3.org/2000/svg"><g clip-path="url(#a)"><path d="M21-.033H0v14.066h21V-.033z" fill="#F0F0F0"/><path d="M11.813-.033H9.187v5.714H0V8.32h9.188v5.714h2.624V8.319H21V5.68h-9.188V-.033z" fill="#D80027"/><path d="M16.151 9.446L21 12.152V9.446h-4.849zm-3.369 0L21 14.033v-1.297l-5.894-3.29h-2.324zm6.028 4.587l-6.028-3.366v3.366h6.029z" fill="#0052B4"/><path d="M12.782 9.446L21 14.033v-1.297l-5.894-3.29h-2.324z" fill="#F0F0F0"/><path d="M12.782 9.446L21 14.033v-1.297l-5.894-3.29h-2.324z" fill="#D80027"/><path d="M3.705 9.446L0 11.514V9.446h3.705zm4.513.584v4.003H1.046l7.172-4.004z" fill="#0052B4"/><path d="M5.894 9.446L0 12.736v1.297l8.217-4.587H5.894z" fill="#D80027"/><path d="M4.849 4.554L0 1.847v2.707h4.849zm3.368 0L0-.033v1.297l5.894 3.29h2.323zM2.188-.033l6.029 3.365V-.033H2.188z" fill="#0052B4"/><path d="M8.217 4.554L0-.033v1.297l5.894 3.29h2.323z" fill="#F0F0F0"/><path d="M8.217 4.554L0-.033v1.297l5.894 3.29h2.323z" fill="#D80027"/><path d="M17.294 4.554l3.705-2.069v2.069h-3.705zm-4.512-.584V-.033h7.172L12.782 3.97z" fill="#0052B4"/><path d="M15.106 4.554L21 1.264V-.033l-8.218 4.587h2.324z" fill="#D80027"/></g><defs><clipPath id="a"><path fill="#fff" d="M0 0h21v14H0z"/></clipPath></defs></svg>