<svg width="21" height="15" viewBox="0 0 21 15" fill="none" xmlns="http://www.w3.org/2000/svg"><path d="M21 .055H0v14.89h21V.054z" fill="#D80027"/><path d="M7.339 4.602l.6 1.968h1.946L8.311 7.786l.601 1.967L7.34 8.537 5.765 9.753l.6-1.967L4.793 6.57h1.945l.602-1.968zm3.788 6.544l-.59-.456-.59.456.226-.738-.59-.456h.729l.225-.737.226.737h.73l-.59.456.224.738zm1.54-2.253h-.73l-.225.737-.225-.737h-.73l.59-.456-.225-.738.59.456.59-.456-.225.738.59.456zm0-2.786l-.59.456.225.738-.59-.456-.59.456.226-.738-.59-.456h.729l.225-.738.226.738h.73zm-1.54-2.254l-.225.738.59.456h-.73l-.225.738-.225-.738h-.73l.59-.456-.225-.738.59.456.59-.456z" fill="#FFDA44"/></svg>