<svg width="206" height="58" viewBox="0 0 206 58" fill="none" xmlns="http://www.w3.org/2000/svg"><path d="M74.96 12.6c0-2.48.824-4.544 2.472-6.192 1.664-1.664 3.816-2.496 6.456-2.496 2.624 0 4.76.792 6.408 2.376 1.68 1.584 2.52 3.688 2.52 6.312 0 2.272-.696 4.192-2.088 5.76l2.28 2.64h-4.44l-.528-.6c-1.248.592-2.632.888-4.152.888-2.608 0-4.752-.792-6.432-2.376-1.664-1.584-2.496-3.688-2.496-6.312zm4.08 0c0 1.424.472 2.632 1.416 3.624.928.976 2.072 1.464 3.432 1.464.576 0 1.12-.072 1.632-.216l-1.32-1.536 2.52-2.256 1.392 1.632c.416-.8.624-1.704.624-2.712 0-1.52-.464-2.744-1.392-3.672-.944-.944-2.096-1.416-3.456-1.416-1.408 0-2.568.472-3.48 1.416-.912.944-1.368 2.168-1.368 3.672zm20.741 2.52V21h-3.84V4.2c.912 0 1.92-.008 3.024-.024s2-.024 2.688-.024c4.144 0 6.216 1.792 6.216 5.376 0 2.304-.944 3.92-2.832 4.848L109.933 21h-4.656l-4.08-5.88h-1.416zm1.68-7.368c-.016 0-.088.008-.216.024-.128 0-.328.008-.6.024h-.864v3.72h1.392c1.744 0 2.616-.648 2.616-1.944 0-1.216-.776-1.824-2.328-1.824zm19.273 7.536V21h-3.84V4.2c.736 0 1.544-.008 2.424-.024.896-.016 1.8-.024 2.712-.024 2.368 0 4.096.528 5.184 1.584 1.072 1.024 1.608 2.352 1.608 3.984 0 1.568-.568 2.904-1.704 4.008-1.136 1.088-2.64 1.632-4.512 1.632-.832 0-1.456-.024-1.872-.072zm1.68-7.536c-.016 0-.088.008-.216.024-.128 0-.328.008-.6.024h-.864v3.84c.672.08 1.256.12 1.752.12.656 0 1.192-.168 1.608-.504.432-.352.648-.872.648-1.56 0-1.296-.776-1.944-2.328-1.944zM142.045 4.2h3.84v9.864c0 2.416-.656 4.224-1.968 5.424-1.296 1.2-2.928 1.8-4.896 1.8-2.24 0-4.016-.632-5.328-1.896-1.328-1.28-1.992-3.112-1.992-5.496V4.2h3.84v8.88c0 3.072 1.16 4.608 3.48 4.608 1.072 0 1.84-.36 2.304-1.08.48-.72.72-1.824.72-3.312V4.2zm15.024 3.6h-7.824V4.2h12.96v2.688L153.877 17.4h8.568V21h-13.68v-2.688L157.069 7.8zm15.187 0h-7.824V4.2h12.96v2.688L169.064 17.4h8.568V21h-13.68v-2.688L172.256 7.8zM191.442 21h-10.68V4.2h3.84v13.2h6.84V21zm12.598 0h-10.2V4.2h9.96v3.6h-6.12v2.952h5.4v3.6h-5.4V17.4h6.36V21zM86.648 44.024h-3.576v-3.6h7.176v7.488c-.72.72-1.68 1.296-2.88 1.728-1.168.432-2.304.648-3.408.648-2.816 0-5.024-.784-6.624-2.352-1.584-1.568-2.376-3.68-2.376-6.336 0-2.48.776-4.544 2.328-6.192 1.568-1.664 3.632-2.496 6.192-2.496 2.208 0 4.04.584 5.496 1.752l-1.608 3.096c-.336-.352-.832-.648-1.488-.888a5.498 5.498 0 0 0-1.944-.36c-1.488 0-2.68.44-3.576 1.32-.88.88-1.32 2.136-1.32 3.768 0 1.552.448 2.792 1.344 3.72.912.912 2.12 1.368 3.624 1.368.448 0 .952-.088 1.512-.264.528-.176.904-.368 1.128-.576v-1.824zM95.302 50h-3.865l6.984-16.8h3.433l6.984 16.8h-4.104l-1.392-3.528h-6.648L95.302 50zm6.6-7.128l-1.872-4.752-1.897 4.752h3.769zM114.828 50h-3.84V33.2h3.864l5.184 7.08 4.896-7.08h3.624V50h-3.84V39.296l-4.68 6.552h-.552l-4.656-6.48V50zm28.251 0h-10.2V33.2h9.96v3.6h-6.12v2.952h5.4v3.6h-5.4V46.4h6.36V50zM0 53h24.09V28.909H0v24.09zm4.818-19.273h14.455v14.417H4.818V33.727z" fill="#fff"/><path d="M14.455 38.545H9.637v4.819h4.818v-4.82zm28.909 9.637h-4.82V53h4.82v-4.818zm9.636 0h-4.82V53H53v-4.818z" fill="#fff"/><path d="M48.181 33.727h-4.818V28.91H28.908V53h4.819V38.546h4.817v4.819H53V28.909h-4.818v4.818zM0 24.091h24.09V0H0v24.091zM4.818 4.818h14.455v14.455H4.818V4.818z" fill="#fff"/><path d="M14.455 9.636H9.637v4.819h4.818V9.636zM28.908 0v24.091H53V0H28.908zm19.273 19.273H33.727V4.818H48.18v14.455z" fill="#fff"/><path d="M43.364 9.636h-4.82v4.819h4.82V9.636z" fill="#fff"/></svg>