<svg width="15" height="13" viewBox="0 0 15 13" fill="none" xmlns="http://www.w3.org/2000/svg"><path fill-rule="evenodd" clip-rule="evenodd" d="M9.14.516c-1.193 0-2.21.763-2.586 1.828H0v1.828h6.554A2.743 2.743 0 1 0 9.141.516zM4.57 7c-1.194 0-2.21.763-2.586 1.828H0v1.828h1.984A2.743 2.743 0 1 0 4.57 7zm3.657 1.828h6.398v1.828H8.227V8.828zM5.484 9.914a.914.914 0 1 1-1.828 0 .914.914 0 0 1 1.828 0zm7.313-7.57h1.828v1.828h-1.828V2.344zm-2.742.914a.914.914 0 1 1-1.828 0 .914.914 0 0 1 1.828 0z" fill="#fff"/></svg>