<svg width="19" height="19" viewBox="0 0 19 19" fill="none" xmlns="http://www.w3.org/2000/svg"><path fill-rule="evenodd" clip-rule="evenodd" d="M14.77 16.544l1.755-1.756-.619-2.246.27-.643 2.032-1.147V8.27l-2.026-1.152-.265-.642.626-2.247-1.757-1.754-2.246.618-.642-.269L10.751.792H8.27L7.117 2.818l-.641.265-2.247-.627L2.475 4.21l.618 2.247-.269.641L.792 8.245v2.482l2.024 1.154.265.643-.625 2.246 1.754 1.755 2.246-.618.642.269 1.147 2.032h2.482l1.153-2.025.643-.265 2.246.626zm.155-5.757l-.69 1.648.519 1.885-.45.45-1.881-.524-1.65.68-.967 1.698H9.17l-.96-1.699-1.646-.69-1.886.519-.45-.45.525-1.88-.68-1.65-1.698-.967V9.17l1.7-.96.69-1.646-.519-1.886.448-.448 1.881.525 1.65-.68.966-1.7h.636l.959 1.7 1.646.69 1.887-.519.45.45-.524 1.88.68 1.65 1.7.965v.637l-1.7.959zM9.5 12.667a3.167 3.167 0 1 1 0-6.334 3.167 3.167 0 0 1 0 6.334zM11.083 9.5a1.583 1.583 0 1 1-3.167 0 1.583 1.583 0 0 1 3.167 0z" fill="#E5E5EA"/></svg>