<svg width="19" height="19" viewBox="0 0 19 19" fill="none" xmlns="http://www.w3.org/2000/svg"><path fill-rule="evenodd" clip-rule="evenodd" d="M9.5 18.208A8.708 8.708 0 1 1 9.5.792a8.708 8.708 0 0 1 0 17.416zm5.858-4.651a7.125 7.125 0 1 0-11.716 0c.89-1.177 2.985-1.682 5.858-1.682 2.873 0 4.967.505 5.858 1.682zm-1.136 1.279c-.232-.834-1.896-1.378-4.722-1.378-2.826 0-4.49.544-4.722 1.378A7.098 7.098 0 0 0 9.5 16.625a7.098 7.098 0 0 0 4.722-1.79zM9.5 4.75c-1.917 0-3.167 1.39-3.167 3.167 0 2.713 1.394 3.958 3.167 3.958 1.756 0 3.166-1.204 3.166-3.8 0-1.804-1.255-3.325-3.166-3.325zM7.917 7.917c0 1.796.647 2.375 1.583 2.375.932 0 1.583-.556 1.583-2.217 0-.99-.62-1.742-1.583-1.742-1.003 0-1.583.646-1.583 1.584z" fill="#E5E5EA"/></svg>