<svg width="23" height="16" viewBox="0 0 23 16" fill="none" xmlns="http://www.w3.org/2000/svg"><path fill-rule="evenodd" clip-rule="evenodd" d="M18.812 6.257c.95-1.021 1.384-1.906 1.14-2.43-.245-.525-1.202-.761-2.597-.69a7.966 7.966 0 0 1 1.457 3.12zM15.437 1.34A8.001 8.001 0 0 0 3.05 7.115C.651 9.174-.545 11.337.24 13.02c.784 1.68 3.21 2.156 6.33 1.64a8.001 8.001 0 0 0 12.386-5.777c2.398-2.057 3.593-4.22 2.81-5.9C20.98 1.3 18.554.825 15.436 1.34zM7.054 12.518a6 6 0 1 1 9.947-4.639c-1.27.98-2.886 1.98-4.731 2.84-1.845.86-3.648 1.455-5.216 1.799zm2.69 1.35a29.85 29.85 0 0 0 3.37-1.337 29.847 29.847 0 0 0 3.193-1.724 5.999 5.999 0 0 1-6.563 3.06zM4.65 12.863c-1.395.072-2.353-.165-2.598-.69-.245-.524.19-1.41 1.14-2.432a7.966 7.966 0 0 0 1.458 3.122z" fill="#7033FF"/></svg>