<svg width="18" height="18" viewBox="0 0 18 18" fill="none" xmlns="http://www.w3.org/2000/svg"><path fill-rule="evenodd" clip-rule="evenodd" d="M9.5 3.223a5.588 5.588 0 0 0-1.583 0V.036a8.819 8.819 0 0 1 1.583 0v3.187zM4.75 8.708a3.958 3.958 0 1 0 7.917 0 3.958 3.958 0 0 0-7.917 0zm6.333 0a2.375 2.375 0 1 1-4.75 0 2.375 2.375 0 0 1 4.75 0zM9.5 17.381v-3.187a5.586 5.586 0 0 1-1.583 0v3.187a8.818 8.818 0 0 0 1.583 0zm4.694-9.464h3.187a8.818 8.818 0 0 1 0 1.583h-3.187a5.586 5.586 0 0 0 0-1.583zm-11.027.791c0-.268.019-.533.056-.791H.036a8.819 8.819 0 0 0 0 1.583h3.187a5.588 5.588 0 0 1-.056-.792zm8.86-4.438l2.254-2.254a8.76 8.76 0 0 1 1.12 1.12L13.146 5.39a5.57 5.57 0 0 0-1.12-1.12zM2.017 3.136L4.27 5.39a5.574 5.574 0 0 1 1.12-1.12L3.136 2.016a8.762 8.762 0 0 0-1.12 1.12zm11.13 8.891l2.253 2.254a8.76 8.76 0 0 1-1.12 1.12l-2.253-2.254a5.569 5.569 0 0 0 1.12-1.12zM3.136 15.4l2.254-2.253a5.573 5.573 0 0 1-1.12-1.12l-2.254 2.254a8.76 8.76 0 0 0 1.12 1.12z" fill="#FFC329"/></svg>