<svg width="19" height="18" viewBox="0 0 19 18" fill="none" xmlns="http://www.w3.org/2000/svg"><path fill-rule="evenodd" clip-rule="evenodd" d="M12.283.087a1.826 1.826 0 0 1 2.329 1.756v1.53h1.826c1.009 0 1.826.817 1.826 1.826v10.958a1.827 1.827 0 0 1-1.826 1.827H1.826A1.827 1.827 0 0 1 0 16.157h.024A1.826 1.826 0 0 1 0 15.86V4.974c0-.815.54-1.532 1.325-1.756L12.283.087zm-4.85 16.07h9.005V8.851h-1.826V7.025h1.826V5.199h-1.826v7.53c0 .815-.541 1.532-1.325 1.756l-5.854 1.672zM1.826 4.974V15.86l10.959-3.131V1.843L1.826 4.974zm9.133 2.051a.913.913 0 1 1-1.827 0 .913.913 0 0 1 1.827 0z" fill="#7033FF"/></svg>